# xmcd
#
# Track frame offsets:
# 150
# 18200
# 46780
# 72490
# 100810
# 147765
# 178332
# 215635
# 259715
#
# Disc length: 3875 seconds
# Revision: 4
# Processed by: cddbd v1.5.1PL0 Copyright (c) Steve Scherf et al.
# Submitted via: MusicBin 0.4
#
DISCID=7f0f2109,7f0f2309
DTITLE=Various Artist - The Blue Note Years, Vol. 3: Organ and Soul [CD2
DTITLE=)
DYEAR=1967
DGENRE=Jazz
TTITLE0=Kenny Burrell - Midnight Blue
TTITLE1=Lou Donaldson - Hog Maw
TTITLE2=Donald Byrd - Christo Redentor
TTITLE3=Stanley Turrentine - River's Invitation
TTITLE4=Lee Morgan - The Sidewinder
TTITLE5=Wayne Shorter - Adam's Apple
TTITLE6=Hank Mobley - The Turnaround
TTITLE7=Donald Byrd - Slow Drag
TTITLE8=Lou Donaldson - Alligator Boogaloo
EXTD=
EXTT0=YEAR: 1963\nComposer: Kenny Burrell
EXTT1=YEAR: 1958\nComposer: Lou Donaldson
EXTT2=YEAR: 1963\nComposer: Donald Byrd
EXTT3=YEAR: 1965\nComposer: Percy Mayfield
EXTT4=YEAR: 1963\nComposer: Lee Morgan
EXTT5=YEAR: 1966\nComposer: Wayne Shorter
EXTT6=YEAR: 1965\nComposer: Hank Mobley
EXTT7=YEAR: 1967\nComposer: Donald Byrd
EXTT8=YEAR: 1967\nComposer: Lou Donaldson
PLAYORDER=
